PathFileType	4	(X/Y/Z)	C:\Users\dbl\Desktop\20210112\20210112\bx_n_0_1802.trc
DataRate	CameraRate	NumFrames	NumMarkers	Units	OrigDataRate	OrigDataStartFrame	OrigNumFrames
50.00	50.00	       8	43	mm	50.00	1	       425
Frame#	Time	Top.Head			R.Acromium			L.Acromium			Sternum			R.ASIS			L.ASIS			V.Sacral			R.Thigh.Upper			R.Thigh.Front			R.Thigh.Rear			R.Knee.Lat			R.Knee.Med			R.Shank.Upper			R.Shank.Front			R.Shank.Rear			R.Ankle.Lat			R.Midfoot.Lat			R.Toe.Lat			R.Toe.Tip			R.Toe.Med			R.Ankle.Med			R.Midfoot.Sup			R.Heel			L.Thigh.Upper			L.Thigh.Front			L.Thigh.Rear			L.Knee.Lat			L.Knee.Med			L.Shank.Upper			L.Shank.Front			L.Shank.Rear			L.Ankle.Lat			L.Midfoot.Lat			L.Toe.Lat			L.Toe.Tip			L.Toe.Med			L.Ankle.Med			L.Midfoot.Sup			L.Heel			origin1 front left			origin2 front right			origin 3 back right			origin 4 back leftt			
		X1	Y1	Z1	X2	Y2	Z2	X3	Y3	Z3	X4	Y4	Z4	X5	Y5	Z5	X6	Y6	Z6	X7	Y7	Z7	X8	Y8	Z8	X9	Y9	Z9	X10	Y10	Z10	X11	Y11	Z11	X12	Y12	Z12	X13	Y13	Z13	X14	Y14	Z14	X15	Y15	Z15	X16	Y16	Z16	X17	Y17	Z17	X18	Y18	Z18	X19	Y19	Z19	X20	Y20	Z20	X21	Y21	Z21	X22	Y22	Z22	X23	Y23	Z23	X24	Y24	Z24	X25	Y25	Z25	X26	Y26	Z26	X27	Y27	Z27	X28	Y28	Z28	X29	Y29	Z29	X30	Y30	Z30	X31	Y31	Z31	X32	Y32	Z32	X33	Y33	Z33	X34	Y34	Z34	X35	Y35	Z35	X36	Y36	Z36	X37	Y37	Z37	X38	Y38	Z38	X39	Y39	Z39	X40	Y40	Z40	X41	Y41	Z41	X42	Y42	Z42	X43	Y43	Z43	

1	0.000	-684.26251	127.92731	1847.85559	-679.09308	-64.32976	1537.57690	-701.54413	297.78265	1526.73730	-579.70325	112.29611	1353.21094	-573.09454	-0.60117	1053.60217	-577.92719	245.81709	1062.80737	-774.14508	102.02173	1054.47363	-639.77124	-67.32957	870.11902	-566.29620	-0.28897	800.67175	-662.95776	-58.16053	757.14752	-691.19897	-30.47103	614.14587	-681.44080	79.23773	572.91284	-701.59406	-28.40405	567.68829	-655.34448	21.13905	516.91504	-747.67194	-41.61340	489.47092	-756.24683	-15.81054	207.87003	-649.27332	-66.24194	162.99774	-608.23889	-73.75323	159.32690	-551.41687	-31.36425	165.88950	-597.33124	26.20096	165.81789	-671.27173	56.04537	156.13345	-715.94220	74.09130	214.69914	-790.95331	42.98400	176.55112	-661.56525	289.77734	871.36993	-569.24493	224.36110	789.70532	-674.05536	273.71173	743.10931	-709.26721	254.06679	642.71271	-680.46997	145.25061	576.53546	-713.88123	249.44322	575.85254	-663.70490	205.36481	533.73096	-755.57336	260.26257	502.51077	-764.53577	225.78931	206.13927	-653.99512	292.41776	156.33691	-616.83838	299.22366	158.32066	-552.75256	246.88312	166.51451	-588.45544	209.95322	173.86987	-674.25873	166.11604	157.21786	-712.96277	150.40993	216.30508	-794.02356	177.51949	185.54367	-528.17328	303.89160	146.53862	-517.46014	-72.78200	143.54431	-875.99792	-78.69180	141.55168	-882.52820	296.10770	144.66029	
2	0.020	-684.28253	127.69371	1847.86047	-678.95898	-64.53765	1537.53516	-701.44629	297.59579	1526.75342	-579.76428	112.28989	1353.17981	-573.06561	-0.69272	1053.63013	-578.05939	245.72443	1062.83618	-774.16711	101.90983	1054.48047	-639.72449	-67.32414	870.09460	-566.26849	-0.34121	800.70343	-662.92792	-58.16931	757.19562	-691.24036	-30.57360	614.22455	-681.40765	79.19928	573.04803	-701.57947	-28.38813	567.62622	-655.34656	21.00275	516.91888	-747.63440	-41.76238	489.28989	-756.23206	-15.78009	207.88841	-649.26544	-66.25893	163.04330	-608.17639	-73.75869	159.41628	-551.43231	-31.38584	165.97194	-597.22791	26.21881	165.86243	-671.48450	55.92728	156.00378	-715.88086	74.04467	214.71626	-790.92719	42.98233	176.49887	-661.68445	289.65781	871.35815	-569.29211	224.36371	789.76190	-674.03204	273.65161	743.12451	-709.29083	253.97702	642.74371	-680.37067	145.13081	576.60834	-713.85657	249.40126	575.70776	-663.77972	205.34927	533.77130	-755.64661	260.07877	502.53305	-764.53381	225.75941	206.06960	-654.05780	292.50607	156.28514	-616.89325	299.22092	158.32025	-552.77631	246.84673	166.49997	-588.47601	209.97446	173.87355	-674.28265	166.00038	157.11629	-712.80719	150.50758	216.31075	-794.11151	177.51295	185.61595	-528.12848	304.02072	146.61711	-517.47845	-72.81707	143.53262	-875.96307	-78.69775	141.48315	-882.50873	296.19067	144.74614	
3	0.040	-684.27545	127.43359	1847.83386	-678.89935	-64.71056	1537.52026	-701.32611	297.40698	1526.78149	-579.81116	112.24195	1353.15613	-573.06952	-0.80662	1053.63733	-578.15942	245.59511	1062.85425	-774.21136	101.81983	1054.49744	-639.69690	-67.34229	870.06897	-566.25671	-0.36576	800.70770	-662.91016	-58.19350	757.22656	-691.25769	-30.66115	614.28235	-681.38190	79.16410	573.14478	-701.56445	-28.39591	567.59857	-655.35913	20.90852	516.91113	-747.62012	-41.87153	489.18311	-756.22089	-15.77541	207.89421	-649.26685	-66.26211	163.06798	-608.13080	-73.75330	159.48500	-551.44733	-31.38984	166.01695	-597.16528	26.23732	165.90129	-671.63586	55.85236	155.90814	-715.84930	74.03744	214.74164	-790.91370	42.97684	176.47241	-661.76324	289.58777	871.35803	-569.32465	224.36414	789.80829	-674.01971	273.57248	743.11530	-709.30450	253.87245	642.74451	-680.22021	144.99063	576.68848	-713.84412	249.36324	575.61047	-663.81787	205.32074	533.80139	-755.69513	259.94403	502.53979	-764.53485	225.74207	206.02628	-654.09460	292.55042	156.26295	-616.92126	299.20667	158.33276	-552.79633	246.81055	166.50273	-588.49402	209.99788	173.88348	-674.30035	165.92752	157.05814	-712.70837	150.56071	216.33449	-794.17267	177.51530	185.65434	-528.11426	304.09192	146.65268	-517.50043	-72.84694	143.53325	-875.95215	-78.71382	141.45770	-882.48389	296.23590	144.79570	
4	0.060	-684.21790	127.14046	1847.77295	-678.93518	-64.83443	1537.52954	-701.19562	297.22083	1526.81421	-579.83722	112.14813	1353.13770	-573.12042	-0.95009	1053.60535	-578.24402	245.44817	1062.86902	-774.27612	101.75536	1054.52002	-639.70892	-67.40334	870.04883	-566.26324	-0.37593	800.68542	-662.91431	-58.22604	757.22913	-691.24536	-30.72401	614.31708	-681.36163	79.13007	573.19177	-701.57019	-28.43041	567.60480	-655.38977	20.86280	516.88470	-747.62390	-41.93942	489.15204	-756.21295	-15.80529	207.88156	-649.27429	-66.25075	163.07172	-608.10150	-73.74401	159.51396	-551.45825	-31.37408	166.01619	-597.13623	26.24952	165.92889	-671.75751	55.76660	155.81575	-715.83020	74.04926	214.77209	-790.90582	42.96577	176.47330	-661.79175	289.56427	871.36292	-569.34229	224.35039	789.84418	-674.02313	273.47678	743.07062	-709.30591	253.76941	642.72388	-680.03491	144.84338	576.78107	-713.85919	249.32555	575.56439	-663.81989	205.27655	533.81207	-755.71033	259.87759	502.53528	-764.52777	225.73601	206.01433	-654.09332	292.53961	156.26721	-616.92242	299.18896	158.35172	-552.81018	246.77364	166.50528	-588.50421	210.02196	173.89726	-674.31219	165.90492	157.05396	-712.67615	150.56140	216.38078	-794.19727	177.52899	185.65604	-528.13055	304.10397	146.64598	-517.52740	-72.86712	143.54938	-875.96252	-78.72974	141.47366	-882.45648	296.23401	144.80336	
5	0.080	-684.11188	126.84278	1847.71008	-679.03979	-64.91936	1537.53625	-701.08331	297.04053	1526.84460	-579.85077	112.03413	1353.10388	-573.20868	-1.11209	1053.52698	-578.33752	245.31865	1062.88782	-774.34155	101.69232	1054.52661	-639.76910	-67.50652	870.04010	-566.27856	-0.41531	800.66046	-662.93878	-58.25734	757.20923	-691.21655	-30.76592	614.33331	-681.34998	79.10304	573.19775	-701.62415	-28.49037	567.62787	-655.43298	20.84017	516.85095	-747.62970	-41.98262	489.14819	-756.21075	-15.85135	207.85321	-649.27747	-66.23608	163.06564	-608.07770	-73.73602	159.50655	-551.45300	-31.34877	165.99081	-597.11353	26.24330	165.94440	-671.86023	55.64020	155.71722	-715.78278	74.02034	214.80440	-790.89771	42.94324	176.48560	-661.78851	289.56561	871.37360	-569.35352	224.30205	789.86328	-674.03857	273.37515	743.00623	-709.29852	253.69359	642.71161	-679.87714	144.70856	576.89264	-713.89398	249.28308	575.55634	-663.80103	205.22360	533.81628	-755.69873	259.86456	502.53445	-764.50073	225.73018	206.01045	-654.06268	292.49789	156.28006	-616.91333	299.17874	158.35933	-552.82397	246.74022	166.48935	-588.50494	210.03842	173.90115	-674.32092	165.90901	157.07790	-712.68201	150.53679	216.42992	-794.19238	177.55185	185.63551	-528.15509	304.10239	146.62921	-517.55347	-72.87487	143.56923	-875.97766	-78.73074	141.50317	-882.43195	296.20197	144.78795	
6	0.100	-683.98480	126.58646	1847.68652	-679.18231	-64.99104	1537.52283	-701.00397	296.86121	1526.88721	-579.87103	111.92263	1353.04504	-573.30475	-1.27190	1053.42578	-578.43024	245.20746	1062.90222	-774.38947	101.59448	1054.50391	-639.85913	-67.62179	870.03650	-566.29779	-0.50520	800.65106	-662.97638	-58.30559	757.19336	-691.19366	-30.79813	614.33466	-681.35492	79.08625	573.18896	-701.73712	-28.56621	567.64948	-655.47766	20.81259	516.83484	-747.63879	-42.00892	489.14218	-756.21399	-15.88449	207.82568	-649.26910	-66.23373	163.05788	-608.04926	-73.73321	159.50458	-551.42365	-31.32152	165.96805	-597.09381	26.21527	165.95515	-671.89673	55.54998	155.65866	-715.71600	73.93624	214.84045	-790.89813	42.90827	176.49107	-661.77716	289.57809	871.39795	-569.36353	224.21060	789.85791	-674.05237	273.25974	742.94513	-709.28760	253.64662	642.71899	-679.78033	144.58792	577.00757	-713.91864	249.24234	575.58807	-663.77661	205.17075	533.83893	-755.67383	259.88116	502.53946	-764.46466	225.71703	205.99542	-654.02612	292.45712	156.29326	-616.90149	299.17154	158.35252	-552.84698	246.71335	166.46828	-588.50134	210.03963	173.88567	-674.32269	165.92285	157.09908	-712.69446	150.52470	216.44064	-794.17706	177.57425	185.60938	-528.17175	304.12784	146.62610	-517.56433	-72.86874	143.57693	-875.98535	-78.71713	141.52173	-882.41589	296.16238	144.76595	
7	0.120	-683.85931	126.39268	1847.71936	-679.34595	-65.07986	1537.49500	-700.95337	296.68411	1526.95935	-579.91656	111.81824	1352.98718	-573.37769	-1.40966	1053.35046	-578.50122	245.10590	1062.90405	-774.41559	101.44504	1054.46997	-639.93683	-67.71145	870.02600	-566.32495	-0.62155	800.65771	-663.02881	-58.39973	757.20911	-691.19653	-30.82777	614.33838	-681.38214	79.06888	573.19470	-701.89154	-28.62919	567.64642	-655.52032	20.76590	516.84845	-747.65991	-42.02251	489.13818	-756.21570	-15.89430	207.81543	-649.25140	-66.24844	163.05237	-608.01678	-73.75127	159.53328	-551.37921	-31.29752	165.96532	-597.09210	26.17962	165.96918	-671.86664	55.56437	155.66089	-715.68866	73.85098	214.87437	-790.91101	42.88602	176.47218	-661.77448	289.57556	871.42035	-569.37219	224.08960	789.83997	-674.05756	273.12723	742.89850	-709.28345	253.60965	642.73492	-679.74036	144.50159	577.07135	-713.92212	249.21385	575.65533	-663.77026	205.12567	533.87866	-755.65430	259.90378	502.54144	-764.44983	225.69647	205.98978	-654.00555	292.43417	156.30670	-616.88580	299.16269	158.34496	-552.87433	246.68877	166.45700	-588.49774	210.02802	173.86148	-674.31409	165.94327	157.10674	-712.70044	150.53812	216.39642	-794.16901	177.58675	185.59883	-528.18195	304.17270	146.63940	-517.54950	-72.84954	143.56966	-875.97931	-78.70367	141.51065	-882.41589	296.13467	144.74615	
8	0.140	-683.74396	126.23457	1847.78931	-679.51245	-65.20907	1537.46179	-700.91876	296.52582	1527.05359	-580.00323	111.70660	1352.95752	-573.42133	-1.51825	1053.32483	-578.54791	245.02583	1062.89807	-774.42633	101.26574	1054.45313	-639.96979	-67.75985	870.00488	-566.35919	-0.72912	800.67468	-663.09894	-58.54229	757.25867	-691.22241	-30.87133	614.37366	-681.43140	79.04034	573.20355	-702.03900	-28.66074	567.61212	-655.55878	20.70540	516.88110	-747.69116	-42.03072	489.14542	-756.21387	-15.89343	207.81776	-649.23920	-66.26385	163.05060	-608.00336	-73.79217	159.55157	-551.34094	-31.28946	165.98380	-597.11316	26.15848	165.98186	-671.83685	55.64598	155.68924	-715.71741	73.80802	214.89766	-790.92554	42.90454	176.42410	-661.79700	289.51331	871.40778	-569.38080	223.96860	789.83746	-674.06976	273.00507	742.87054	-709.29602	253.56779	642.74487	-679.74280	144.48959	577.04523	-713.91882	249.19456	575.72662	-663.79749	205.09334	533.91174	-755.65527	259.89981	502.54514	-764.47229	225.66789	206.02928	-654.00531	292.43124	156.31502	-616.87067	299.15665	158.34685	-552.89050	246.66341	166.44582	-588.49188	210.00696	173.84998	-674.30328	165.95955	157.10687	-712.70410	150.55428	216.33286	-794.16779	177.59741	185.60866	-528.19312	304.19540	146.65575	-517.51416	-72.82707	143.56129	-875.96234	-78.70605	141.46854	-882.43292	296.12909	144.73735	
